<?xml version="1.0" encoding="utf-8"?>
<!-- Generator: Adobe Illustrator 18.1.1, SVG Export Plug-In . SVG Version: 6.00 Build 0)  -->
<svg version="1.1" id="Layer_1" xmlns="http://www.w3.org/2000/svg" xmlns:xlink="http://www.w3.org/1999/xlink" x="0px" y="0px"
	 width="32px" height="32px" viewBox="0 0 32 32" style="enable-background:new 0 0 32 32;" xml:space="preserve">
<g>
	<circle style="fill:#FB3636;" cx="16" cy="16" r="14"/>
</g>
<path style="fill:#FFFFFF;" d="M23.9,16l3.2-4c0.2-0.2,0.1-0.5-0.1-0.7c-0.2-0.2-0.5-0.1-0.7,0.1l-3.1,3.8l-3.1-3.8
	c-0.1-0.2-0.4-0.2-0.6-0.1c-0.2-0.1-0.4,0-0.6,0.1L16,15.2l-3.1-3.8c-0.1-0.2-0.4-0.2-0.6-0.1c-0.2-0.1-0.4,0-0.6,0.1l-3.1,3.8
	l-3.1-3.8c-0.2-0.2-0.5-0.3-0.7-0.1c-0.2,0.2-0.2,0.5-0.1,0.7l3.2,4l-3.2,4c-0.2,0.2-0.1,0.5,0.1,0.7c0.1,0.1,0.2,0.1,0.3,0.1
	c0.1,0,0.3-0.1,0.4-0.2l3.1-3.8l3.1,3.8c0.1,0.1,0.2,0.2,0.4,0.2c0.1,0,0.1,0,0.2,0c0.1,0,0.1,0,0.2,0c0.1,0,0.3-0.1,0.4-0.2
	l3.1-3.8l3.1,3.8c0.1,0.1,0.2,0.2,0.4,0.2c0.1,0,0.1,0,0.2,0c0.1,0,0.1,0,0.2,0c0.1,0,0.3-0.1,0.4-0.2l3.1-3.8l3.1,3.8
	c0.1,0.1,0.2,0.2,0.4,0.2c0.1,0,0.2,0,0.3-0.1c0.2-0.2,0.2-0.5,0.1-0.7L23.9,16z M12.4,19.7l-3-3.7l3-3.7l3,3.7L12.4,19.7z
	 M19.6,19.7l-3-3.7l3-3.7l3,3.7L19.6,19.7z"/>
</svg>
