<?xml version="1.0" encoding="utf-8"?>
<!-- Generator: Adobe Illustrator 18.1.1, SVG Export Plug-In . SVG Version: 6.00 Build 0)  -->
<svg version="1.1" id="Layer_1" xmlns="http://www.w3.org/2000/svg" xmlns:xlink="http://www.w3.org/1999/xlink" x="0px" y="0px"
	 width="32px" height="32px" viewBox="0 0 32 32" style="enable-background:new 0 0 32 32;" xml:space="preserve">
<g>
	<circle style="fill:#FB3636;" cx="16" cy="16" r="14"/>
</g>
<g>
	<path style="fill:#FFFFFF;" d="M20,24.5h-8c-0.3,0-0.5-0.2-0.5-0.5V12c0-0.3,0.2-0.5,0.5-0.5h2.5V7c0-0.3,0.2-0.5,0.5-0.5h2
		c0.3,0,0.5,0.2,0.5,0.5v4.5H20c0.3,0,0.5,0.2,0.5,0.5v12C20.5,24.3,20.3,24.5,20,24.5z M12.5,23.5h7v-11H17c-0.3,0-0.5-0.2-0.5-0.5
		V7.5h-1V12c0,0.3-0.2,0.5-0.5,0.5h-2.5V23.5z"/>
</g>
</svg>
