<?xml version="1.0" encoding="utf-8"?>
<!-- Generator: Adobe Illustrator 18.1.1, SVG Export Plug-In . SVG Version: 6.00 Build 0)  -->
<svg version="1.1" id="Layer_1" xmlns="http://www.w3.org/2000/svg" xmlns:xlink="http://www.w3.org/1999/xlink" x="0px" y="0px"
	 width="32px" height="32px" viewBox="0 0 32 32" style="enable-background:new 0 0 32 32;" xml:space="preserve">
<g>
	<circle style="fill:#00BAFF;" cx="16" cy="16" r="14"/>
</g>
<g>
	<g>
		<path style="fill:#FFFFFF;" d="M24.4,23.4C24.4,23.4,24.4,23.4,24.4,23.4c-0.3,0-0.5-0.2-0.5-0.5c0-0.6-0.3-2.2-0.7-3
			c-0.7-0.4-2-1.1-2.8-1.5C19.8,19,18.5,20,16,20s-3.8-1-4.4-1.6c-0.8,0.3-2.2,1.1-2.8,1.5c-0.4,0.8-0.7,2.3-0.7,3
			c0,0.3-0.2,0.5-0.5,0.5c0,0,0,0,0,0c-0.3,0-0.5-0.2-0.5-0.5c0-0.8,0.4-2.7,0.9-3.6c0-0.1,0.1-0.1,0.2-0.2c0.1-0.1,2.5-1.4,3.5-1.7
			c0.2-0.1,0.4,0,0.6,0.2c0,0.1,1.1,1.5,3.8,1.5c2.7,0,3.7-1.4,3.8-1.5c0.1-0.2,0.4-0.3,0.6-0.2c1,0.3,3.4,1.7,3.5,1.7
			c0.1,0,0.1,0.1,0.2,0.2c0.5,0.9,0.9,2.8,0.9,3.6C24.9,23.2,24.7,23.4,24.4,23.4z"/>
	</g>
</g>
<g>
	<g>
		<path style="fill:#FFFFFF;" d="M16.1,14.1c-0.3,0-0.5-0.2-0.5-0.5c0-1.4,0.8-2,1.5-2.5c0.6-0.4,1-0.8,1-1.6c0-0.9-0.5-2-2-2
			c-1,0-2,0.8-2,2c0,0.3-0.2,0.5-0.5,0.5s-0.5-0.2-0.5-0.5c0-1.9,1.6-3,3-3c2.1,0,3,1.6,3,3c0,1.4-0.8,2-1.4,2.4
			c-0.6,0.4-1.1,0.8-1.1,1.7C16.6,13.9,16.4,14.1,16.1,14.1z"/>
	</g>
	<g>
		<path style="fill:#FFFFFF;" d="M17,15.9c0,0.5-0.4,0.8-0.8,0.8c-0.5,0-0.8-0.4-0.8-0.8c0-0.5,0.4-0.8,0.8-0.8
			C16.6,15.1,17,15.5,17,15.9z"/>
	</g>
</g>
</svg>
