<?xml version="1.0" encoding="utf-8"?>
<!-- Generator: Adobe Illustrator 18.1.1, SVG Export Plug-In . SVG Version: 6.00 Build 0)  -->
<svg version="1.1" id="Layer_1" xmlns="http://www.w3.org/2000/svg" xmlns:xlink="http://www.w3.org/1999/xlink" x="0px" y="0px"
	 width="32px" height="32px" viewBox="0 0 32 32" style="enable-background:new 0 0 32 32;" xml:space="preserve">
<g>
	<circle style="fill:#FFAB00;" cx="16" cy="16" r="14"/>
</g>
<path style="fill:#FFFFFF;" d="M19.6,10.4c2.1,0,3.8,1.7,3.8,3.8c0,1.4-0.9,2.5-1.3,2.9c-0.1,0.1-0.3,0.3-0.4,0.4L16,23.1l-5.6-5.6
	c-0.1-0.1-0.3-0.3-0.4-0.5c-0.9-0.9-1.3-1.8-1.3-2.9c0-2.1,1.7-3.8,3.8-3.8c1.1,0,2.1,0.5,2.8,1.3c0.2,0.2,0.5,0.3,0.8,0.3
	s0.6-0.1,0.8-0.3C17.5,10.8,18.5,10.4,19.6,10.4 M19.6,9.4c-1.4,0-2.7,0.6-3.6,1.6h0c-0.9-1-2.2-1.6-3.6-1.6c-2.7,0-4.8,2.1-4.8,4.8
	c0,1.4,0.7,2.6,1.6,3.6c0.3,0.3,0.4,0.4,0.4,0.4c0,0-0.4-0.4-0.4-0.4l6.8,6.8l6.8-6.8c0,0-0.4,0.4-0.4,0.4c0,0,0.1-0.1,0.4-0.4
	c0.9-0.9,1.6-2.2,1.6-3.6C24.4,11.5,22.3,9.4,19.6,9.4L19.6,9.4z"/>
</svg>
