<?xml version="1.0" encoding="utf-8"?>
<!-- Generator: Adobe Illustrator 18.1.1, SVG Export Plug-In . SVG Version: 6.00 Build 0)  -->
<svg version="1.1" id="Layer_1" xmlns="http://www.w3.org/2000/svg" xmlns:xlink="http://www.w3.org/1999/xlink" x="0px" y="0px"
	 width="32px" height="32px" viewBox="0 0 32 32" style="enable-background:new 0 0 32 32;" xml:space="preserve">
<g>
	<g>
		<circle style="fill:#FB3636;" cx="16" cy="16" r="14"/>
	</g>
</g>
<g>
	<path style="fill:#FFFFFF;" d="M11.4,26.4c-0.1,0-0.2,0-0.3-0.1c-0.2-0.1-0.3-0.4-0.1-0.6l4.4-8.5l-3.8-1.9
		c-0.1-0.1-0.2-0.2-0.3-0.3c0-0.1,0-0.3,0.1-0.4l6.3-8.7c0.1-0.2,0.4-0.3,0.6-0.2l4.1,2c0.1,0.1,0.2,0.2,0.3,0.3
		c0,0.1,0,0.3-0.1,0.4l-4.1,5.1l3.8,2c0.1,0.1,0.2,0.2,0.3,0.4c0,0.2,0,0.3-0.2,0.4l-10.5,9.9C11.6,26.4,11.5,26.4,11.4,26.4z
		 M12.5,14.6l3.7,1.8c0.1,0.1,0.2,0.2,0.3,0.3c0,0.1,0,0.3,0,0.4l-3.3,6.4l7.9-7.4l-3.7-1.9c-0.1-0.1-0.2-0.2-0.3-0.3s0-0.3,0.1-0.4
		l4.1-5.1l-3.1-1.5L12.5,14.6z"/>
</g>
</svg>
