<?xml version="1.0" encoding="utf-8"?>
<!-- Generator: Adobe Illustrator 18.1.1, SVG Export Plug-In . SVG Version: 6.00 Build 0)  -->
<svg version="1.1" id="Layer_1" xmlns="http://www.w3.org/2000/svg" xmlns:xlink="http://www.w3.org/1999/xlink" x="0px" y="0px"
	 width="32px" height="32px" viewBox="0 0 32 32" style="enable-background:new 0 0 32 32;" xml:space="preserve">
<g>
	<circle style="fill:#FB3636;" cx="16" cy="16" r="14"/>
</g>
<g>
	<path style="fill:#FFFFFF;" d="M23.8,11.6c-0.1,0-0.3,0-0.4-0.1l-2.9-2.9c-0.2-0.2-0.2-0.5,0-0.7s0.5-0.2,0.7,0l2.9,2.9
		c0.2,0.2,0.2,0.5,0,0.7C24,11.5,23.9,11.6,23.8,11.6z"/>
</g>
<g>
	<path style="fill:#FFFFFF;stroke:#000000;stroke-linecap:round;stroke-linejoin:round;stroke-miterlimit:10;" d="M14,15.4"/>
</g>
<g>
	<path style="fill:#FFFFFF;stroke:#000000;stroke-linecap:round;stroke-linejoin:round;stroke-miterlimit:10;" d="M16.6,18"/>
</g>
<path style="fill:#FFFFFF;" d="M22.1,12.8l-2.9-2.9c-0.2-0.2-0.5-0.2-0.7,0L11.4,17c-0.2,0.2-0.2,0.5,0,0.7l1.1,1.1l-4,3.9
	c-0.2,0.2-0.2,0.5,0,0.7c0.1,0.1,0.2,0.1,0.4,0.1s0.3,0,0.4-0.1l4-3.9l1.1,1.1c0.1,0.1,0.2,0.1,0.4,0.1s0.3-0.1,0.4-0.1l7.1-7.1
	c0.1-0.1,0.1-0.2,0.1-0.4S22.2,12.9,22.1,12.8z M14.6,19.6l-2.2-2.2l6.4-6.4l2.2,2.2L14.6,19.6z"/>
</svg>
