<?xml version="1.0" encoding="utf-8"?>
<!-- Generator: Adobe Illustrator 18.1.1, SVG Export Plug-In . SVG Version: 6.00 Build 0)  -->
<svg version="1.1" id="Layer_1" xmlns="http://www.w3.org/2000/svg" xmlns:xlink="http://www.w3.org/1999/xlink" x="0px" y="0px"
	 width="32px" height="32px" viewBox="0 0 32 32" style="enable-background:new 0 0 32 32;" xml:space="preserve">
<g>
	<g>
		<circle style="fill:#FB3636;" cx="16" cy="16" r="14"/>
	</g>
</g>
<path style="fill:#FFFFFF;" d="M26.1,16.8l-4.4-8.3c0-0.1-0.1-0.1-0.2-0.2c0,0,0,0-0.1,0c0,0-0.1,0-0.1,0c0,0-0.1,0-0.1,0
	c0,0,0,0,0,0l-8.4,1c-0.1,0-0.2,0.1-0.3,0.1l-5.7,5.9c0,0,0,0,0,0.1c0,0,0,0-0.1,0.1c0,0,0,0.1,0,0.1c0,0,0,0.1,0,0.1
	c0,0.1,0,0.1,0,0.2c0,0,0,0,0,0.1c0,0,0,0,0,0c0,0,0,0,0,0l4.4,7.8c0.1,0.2,0.3,0.3,0.4,0.3c0,0,0,0,0,0l8.7-0.3
	c0.1,0,0.2,0,0.2-0.1c0,0,0,0,0,0c0,0,0,0,0.1-0.1c0,0,0,0,0.1,0l5.4-6C26.2,17.2,26.2,16.9,26.1,16.8z M13.1,10.1l6.8-0.8l-4.8,4.8
	l-6.6,0.8L13.1,10.1z M8,15.9l7.1-0.9l4.4,7.5l-7.6,0.2L8,15.9z M20.4,22.2L16,14.6l5.2-5.2l3.9,7.4L20.4,22.2z"/>
<g>
	<g>
		<path style="fill:#FFFFFF;" d="M11.3,18c-0.2,0-0.3-0.1-0.4-0.2c-0.2-0.2-0.1-0.6,0.1-0.7c0.2-0.2,0.5-0.1,0.7,0.1l0,0
			c0.2,0.2,0.1,0.5-0.1,0.7C11.5,18,11.4,18,11.3,18z"/>
	</g>
	<g>
		<path style="fill:#FFFFFF;" d="M13.8,12.6c-0.2,0-0.3-0.1-0.4-0.2c-0.1-0.1-0.1-0.3-0.1-0.5c0-0.1,0.1-0.3,0.4-0.4
			c0.1-0.1,0.2-0.1,0.3-0.1c0.2,0,0.4,0,0.5,0.1s0.2,0.3,0.1,0.5c0,0.1-0.1,0.2-0.2,0.4C14.1,12.5,14,12.6,13.8,12.6
			C13.9,12.6,13.8,12.6,13.8,12.6z"/>
	</g>
	<path style="fill:#FFFFFF;" d="M11.3,18c-0.2,0-0.3-0.1-0.4-0.2c-0.2-0.2-0.1-0.6,0.1-0.7c0.2-0.2,0.5-0.1,0.7,0.1l0,0
		c0.2,0.2,0.1,0.5-0.1,0.7C11.5,18,11.4,18,11.3,18z"/>
	<path style="fill:#FFFFFF;" d="M15.4,20.7c-0.1,0-0.2,0-0.3-0.1l0,0c-0.2-0.2-0.3-0.5-0.1-0.7c0.2-0.2,0.5-0.3,0.7-0.1
		s0.3,0.5,0.1,0.7C15.7,20.6,15.5,20.7,15.4,20.7z"/>
	<path style="fill:#FFFFFF;" d="M20.7,19.1C20.6,19.1,20.6,19.1,20.7,19.1c-0.4-0.1-0.5-0.3-0.5-0.6l0-0.1c0-0.3,0.3-0.5,0.6-0.4
		c0.3,0,0.5,0.3,0.4,0.6C21.1,18.9,20.9,19.1,20.7,19.1z"/>
	<path style="fill:#FFFFFF;" d="M20.7,13.5C20.6,13.5,20.6,13.5,20.7,13.5c-0.4-0.1-0.5-0.3-0.5-0.6l0-0.1c0.1-0.3,0.3-0.4,0.6-0.4
		c0.3,0.1,0.5,0.3,0.4,0.6C21.1,13.3,20.9,13.5,20.7,13.5z"/>
	<path style="fill:#FFFFFF;" d="M20.7,16.3C20.6,16.3,20.6,16.3,20.7,16.3c-0.4-0.1-0.5-0.3-0.5-0.6l0-0.1c0.1-0.3,0.3-0.5,0.6-0.4
		c0.3,0.1,0.5,0.3,0.4,0.6C21.1,16.1,20.9,16.3,20.7,16.3z"/>
	<path style="fill:#FFFFFF;" d="M13.8,12.6c-0.2,0-0.3-0.1-0.4-0.2c-0.1-0.1-0.1-0.3-0.1-0.5c0-0.1,0.1-0.3,0.4-0.4
		c0.1-0.1,0.2-0.1,0.3-0.1c0.2,0,0.4,0,0.5,0.1c0.1,0.1,0.2,0.3,0.1,0.5c0,0.1-0.1,0.2-0.2,0.4C14.1,12.5,14,12.6,13.8,12.6
		C13.9,12.6,13.8,12.6,13.8,12.6z"/>
</g>
</svg>
