<?xml version="1.0" encoding="utf-8"?>
<!-- Generator: Adobe Illustrator 18.1.1, SVG Export Plug-In . SVG Version: 6.00 Build 0)  -->
<svg version="1.1" id="Layer_1" xmlns="http://www.w3.org/2000/svg" xmlns:xlink="http://www.w3.org/1999/xlink" x="0px" y="0px"
	 width="32px" height="32px" viewBox="0 0 32 32" style="enable-background:new 0 0 32 32;" xml:space="preserve">
<g>
	<circle style="fill:#FFAB00;" cx="16" cy="16" r="14"/>
</g>
<path style="fill:#FFFFFF;" d="M24.3,11l-2.1-1.9C22.1,9.1,21.9,9,21.8,9h-6.3c-0.1,0-0.2,0-0.3,0.1l-2.2,1.8h-1.8v-0.4
	c0-0.3-0.2-0.5-0.5-0.5H8c-0.3,0-0.5,0.2-0.5,0.5V18c0,0.3,0.2,0.5,0.5,0.5h2.8c0.3,0,0.5-0.2,0.5-0.5v-0.2c3.5,1.5,5.8,8.2,5.8,8.3
	c0.1,0.2,0.3,0.3,0.5,0.3h2c0.3,0,0.5-0.2,0.5-0.5l0-1.7c0-0.1,0-0.1,0-0.2l-0.4-1.1l0-2.3l3.2,0c0.1,0,0.2,0,0.3-0.1l1-0.7
	c0.1-0.1,0.2-0.2,0.2-0.4l0-7.9C24.5,11.3,24.4,11.1,24.3,11z M10.3,17.5H8.5V11h1.8v0.4v5.6V17.5z M23.5,19.1l-0.7,0.5l-3.6,0
	c-0.3,0-0.5,0.2-0.5,0.5l0,2.9c0,0.1,0,0.1,0,0.2l0.4,1.1l0,1.2h-1.1c-0.5-1.5-2.9-7.5-6.6-8.7v-4.8h2c0.1,0,0.2,0,0.3-0.1l2.2-1.8
	h5.9l1.8,1.6L23.5,19.1z"/>
</svg>
