<?xml version="1.0" encoding="utf-8"?>
<!-- Generator: Adobe Illustrator 18.1.1, SVG Export Plug-In . SVG Version: 6.00 Build 0)  -->
<svg version="1.1" id="Layer_1" xmlns="http://www.w3.org/2000/svg" xmlns:xlink="http://www.w3.org/1999/xlink" x="0px" y="0px"
	 width="32px" height="32px" viewBox="0 0 32 32" style="enable-background:new 0 0 32 32;" xml:space="preserve">
<g>
	<path style="fill:none;stroke:#000000;stroke-linecap:round;stroke-linejoin:round;stroke-miterlimit:10;" d="M19,7.3"/>
</g>
<g>
	<circle style="fill:#FB3636;" cx="16" cy="16" r="14"/>
</g>
<g>
	<path style="fill:#FFFFFF;" d="M15.6,20.1c0.1,0.1,0.2,0.1,0.4,0.1s0.3,0,0.4-0.1l4.1-4.1c0.2-0.2,0.2-0.5,0-0.7s-0.5-0.2-0.7,0
		l-3.2,3.2V7.5C16.5,7.2,16.3,7,16,7s-0.5,0.2-0.5,0.5v11.1l-3.2-3.2c-0.2-0.2-0.5-0.2-0.7,0s-0.2,0.5,0,0.7L15.6,20.1z"/>
	<path style="fill:#FFFFFF;" d="M23,22H9c-0.3,0-0.5,0.2-0.5,0.5S8.7,23,9,23h14c0.3,0,0.5-0.2,0.5-0.5S23.3,22,23,22z"/>
</g>
</svg>
