<?xml version="1.0" encoding="utf-8"?>
<!-- Generator: Adobe Illustrator 18.1.1, SVG Export Plug-In . SVG Version: 6.00 Build 0)  -->
<svg version="1.1" id="Layer_1" xmlns="http://www.w3.org/2000/svg" xmlns:xlink="http://www.w3.org/1999/xlink" x="0px" y="0px"
	 width="32px" height="32px" viewBox="0 0 32 32" style="enable-background:new 0 0 32 32;" xml:space="preserve">
<g>
	<circle style="fill:#FB3636;" cx="16" cy="16" r="14"/>
</g>
<g>
	<path style="fill:none;stroke:#000000;stroke-linecap:round;stroke-linejoin:round;stroke-miterlimit:10;" d="M19,7.3"/>
</g>
<path style="fill:#FFFFFF;" d="M22.6,20.1c-0.7-0.3-2.3-1-3.1-1.5c0.1-0.2,0.2-0.3,0.2-0.3c0.1-0.2,0.1-0.5,0-0.6
	C19,17,18.9,16.8,18.9,16c0.4-0.7,0.7-1.3,0.9-1.8v-0.1c0.9-2,0.5-3.4,0.3-4.3L20,9.6c-0.4-1.3-1.2-2.8-4.1-2.8s-3.7,1.5-4.1,2.8
	l-0.1,0.2c-0.2,0.8-0.6,2.2,0.3,4.3c0.3,0.7,0.8,1.6,0.9,1.9c0,0.8,0,1-0.8,1.7c-0.2,0.2-0.2,0.4-0.1,0.6c0,0,0.1,0.1,0.2,0.2
	C11.4,19,9.7,19.7,8.9,20c-1.1,0.6-1.8,1.8-1.8,3.1c0,0.3,0.2,0.5,0.5,0.5s0.5-0.2,0.5-0.5c0-1,0.5-1.8,1.2-2.2
	c0.3-0.1,2.6-1.1,3.6-1.7c0.1,0.1,0.2,0.2,0.3,0.2c0.8,0.5,2.3,0.6,2.4,0.6l0,0l0,0c0.2,0,1.7-0.1,2.4-0.6c0.1-0.1,0.2-0.1,0.3-0.2
	c1,0.6,3.2,1.6,3.5,1.7c0.8,0.5,1.3,1.3,1.3,2.3c0,0.3,0.2,0.5,0.5,0.5s0.5-0.2,0.5-0.5C24.4,21.9,23.7,20.8,22.6,20.1z M13.2,12.2
	c0-0.4,0.4-0.8,1-0.8s1,0.3,1,0.8s-0.4,0.8-1,0.8S13.2,12.5,13.2,12.2z M15.9,16.7c-0.8,0-1.5-0.4-1.5-1s0.7-1,1.5-1
	c0.8,0,1.5,0.4,1.5,1C17.4,16.3,16.7,16.7,15.9,16.7z M17.6,12.9c-0.7,0-1-0.3-1-0.8s0.4-0.8,1-0.8s1,0.3,1,0.8S18.3,12.9,17.6,12.9
	z"/>
</svg>
