<?xml version="1.0" encoding="utf-8"?>
<!-- Generator: Adobe Illustrator 18.1.1, SVG Export Plug-In . SVG Version: 6.00 Build 0)  -->
<svg version="1.1" id="Layer_1" xmlns="http://www.w3.org/2000/svg" xmlns:xlink="http://www.w3.org/1999/xlink" x="0px" y="0px"
	 width="32px" height="32px" viewBox="0 0 32 32" style="enable-background:new 0 0 32 32;" xml:space="preserve">
<g>
	<circle style="fill:#FFAB00;" cx="16" cy="16" r="14"/>
</g>
<path style="fill:#FFFFFF;" d="M20.6,19.5c-0.2-1.6-0.9-3.1-4.5-3.9c-3.2-0.7-3.1-2.8-3.1-2.9c0.1-1.9,1.5-2.7,2.8-2.8
	c1.9-0.2,3.3,1.4,3.4,1.5c0.2,0.2,0.5,0.2,0.7,0.1c0.2-0.2,0.2-0.5,0.1-0.7c-0.2-0.2-1.5-1.7-3.5-1.9V6.5C16.5,6.2,16.3,6,16,6
	s-0.5,0.2-0.5,0.5v2.4c-2,0.2-3.4,1.7-3.5,3.7c0,0.1-0.2,3.1,3.9,4c3.4,0.8,3.6,2.2,3.7,3.1c0.1,0.6-0.2,1.3-0.7,1.9
	c-0.7,0.8-1.6,1.2-2.6,1.3c0,0,0,0-0.1,0c-1.7,0-3.3-1.3-3.8-1.9c-0.2-0.2-0.5-0.3-0.7-0.1c-0.2,0.2-0.3,0.5-0.1,0.7
	c0.6,0.9,2.2,2.1,4,2.3V26c0,0.3,0.2,0.5,0.5,0.5s0.5-0.2,0.5-0.5v-2.2c1.2-0.1,2.3-0.6,3.1-1.6C20.3,21.4,20.7,20.4,20.6,19.5z"/>
</svg>
