<?xml version="1.0" encoding="utf-8"?>
<!-- Generator: Adobe Illustrator 21.1.0, SVG Export Plug-In . SVG Version: 6.00 Build 0)  -->
<svg version="1.1" id="Layer_1" xmlns="http://www.w3.org/2000/svg" xmlns:xlink="http://www.w3.org/1999/xlink" x="0px" y="0px"
	 width="32px" height="32px" viewBox="0 0 32 32" style="enable-background:new 0 0 32 32;" xml:space="preserve">
<style type="text/css">
	.st0{fill:#FFAB00;}
	.st1{fill:#FFFFFF;}
</style>
<g>
	<g>
		<circle class="st0" cx="16" cy="16" r="12.6"/>
	</g>
</g>
<path class="st1" d="M12.5,23c-0.1,0-0.2,0-0.2-0.1c-0.2-0.1-0.3-0.3-0.3-0.4V9.4C12,9.2,12.1,9,12.3,9c0.2-0.1,0.4-0.1,0.5,0
	l10.4,6.5c0.1,0.1,0.2,0.3,0.2,0.4s-0.1,0.3-0.2,0.4l-10.4,6.6C12.7,22.9,12.6,23,12.5,23z M13,10.3v11.2l8.9-5.7L13,10.3z"/>
</svg>
