<?xml version="1.0" encoding="utf-8"?>
<!-- Generator: Adobe Illustrator 18.1.1, SVG Export Plug-In . SVG Version: 6.00 Build 0)  -->
<svg version="1.1" id="Layer_1" xmlns="http://www.w3.org/2000/svg" xmlns:xlink="http://www.w3.org/1999/xlink" x="0px" y="0px"
	 width="32px" height="32px" viewBox="0 0 32 32" style="enable-background:new 0 0 32 32;" xml:space="preserve">
<g>
	<circle style="fill:#00BAFF;" cx="16" cy="16" r="14"/>
</g>
<g>
	<path style="fill:#FFFFFF;" d="M15.5,19.7c-0.3,0-0.5-0.2-0.5-0.5V19c0,0,0-0.1,0-0.1c0.1-2.2,1.4-3,2.5-3.8c1.1-0.7,2-1.3,2-3
		c0-1.8-0.6-3.9-3.5-3.9c-1.9,0-3.9,0.9-3.9,3.4c0,0.3-0.2,0.5-0.5,0.5s-0.5-0.2-0.5-0.5c0-3.3,2.6-4.4,4.9-4.4
		c2.9,0,4.5,1.8,4.5,4.9c0,2.3-1.3,3.1-2.4,3.9C17,16.7,16,17.3,16,19.2C16,19.5,15.8,19.7,15.5,19.7z"/>
</g>
<g>
	<path style="fill:#FFFFFF;" d="M17.1,24.3c0,0.8-0.6,1.4-1.4,1.4c-0.8,0-1.4-0.6-1.4-1.4c0-0.8,0.6-1.4,1.4-1.4
		C16.4,22.8,17.1,23.5,17.1,24.3z"/>
</g>
</svg>
