<?xml version="1.0" encoding="utf-8"?>
<!-- Generator: Adobe Illustrator 18.1.1, SVG Export Plug-In . SVG Version: 6.00 Build 0)  -->
<svg version="1.1" id="Layer_1" xmlns="http://www.w3.org/2000/svg" xmlns:xlink="http://www.w3.org/1999/xlink" x="0px" y="0px"
	 width="32px" height="32px" viewBox="0 0 32 32" style="enable-background:new 0 0 32 32;" xml:space="preserve">
<g>
	<path style="fill:none;stroke:#000000;stroke-linecap:round;stroke-linejoin:round;stroke-miterlimit:10;" d="M19,7.3"/>
</g>
<g>
	<circle style="fill:#FFAB00;" cx="16" cy="16" r="14"/>
</g>
<path style="fill:#FFFFFF;" d="M25.1,9.6l-2.9-1.1l0.1-0.8c0-0.2-0.1-0.5-0.4-0.6l-3.4-1l0-0.1c0-0.1-0.1-0.3-0.2-0.4
	c-0.1-0.1-0.3-0.1-0.4-0.1L13.9,6c-0.3,0-0.5,0.3-0.4,0.5l0,0L9.9,7.8C9.7,7.9,9.6,8.1,9.6,8.3l0.1,3.1l-0.4,0.1
	c-0.2,0-0.4,0.2-0.4,0.4c-0.1,0.4-0.5,4.1,0,5.4c0.2,0.6,1.4,1.7,1.9,2.1l-0.8,5.5c0,0.3,0.1,0.5,0.4,0.6c0,0,0,0,0.1,0
	c0.2,0,0.5-0.2,0.5-0.4l0.8-5.8c0-0.2,0-0.3-0.2-0.5c-0.8-0.6-1.7-1.5-1.8-1.9c-0.3-0.7-0.1-3,0-4.5l5.3-0.8c0.1,0.6,0.2,1.5,0,2
	c-0.1,0.3-1.2,0.9-2.1,1.3c-0.3,0.1-0.4,0.4-0.3,0.6c0.1,0.3,0.4,0.4,0.6,0.3c0.4-0.1,1.3-0.5,2-1c0.2,0.1,0.7,0.2,1.2,0.2
	c0.4,0,0.9-0.1,1.3-0.3c0,0,0.1,0,0.1,0c0.2,0.1,1.3,0.5,1.8,0.5c0.5,0,1-0.4,1.3-0.7c0.3,0.3,0.7,0.7,1,0.8c0.1,0,0.2,0,0.2,0.1
	c-0.1,0.9-0.2,2.5-0.4,3.1c-0.2,0.4-1.1,1.5-1.7,2.1c-0.1,0.1-0.2,0.3-0.1,0.4l0.8,5.4c0,0.2,0.3,0.4,0.5,0.4c0,0,0,0,0.1,0
	c0.3,0,0.5-0.3,0.4-0.6L20.8,21c0.4-0.5,1.4-1.6,1.7-2.2c0.3-0.8,0.5-2.6,0.5-3.4c0.5-0.1,0.8-0.3,0.9-0.5c0,0,0.1-0.1,0.1-0.2
	l1.3-4.4C25.5,10,25.3,9.7,25.1,9.6z M10.6,8.6l2.9-1.1l0.1,3.3l-2.9,0.5L10.6,8.6z M16,13.9c0.4-1.1,0-2.8,0-3
	c-0.1-0.2-0.3-0.4-0.6-0.4l-0.8,0.1l-0.1-3.8l3-0.3l-0.1,7c0,0-0.1,0-0.1,0.1C17,14,16.4,14,16,13.9z M20.4,13.5
	c-0.3,0.3-0.7,0.6-0.9,0.6c-0.2,0-0.7-0.1-1.1-0.3l0.1-6.6L21.2,8L20.4,13.5z M23.2,14.2c-0.1,0.1-0.4,0.3-1,0.1
	c-0.1-0.1-0.4-0.4-0.7-0.7l0.6-4l2.3,0.8L23.2,14.2z"/>
</svg>
