<?xml version="1.0" encoding="utf-8"?>
<!-- Generator: Adobe Illustrator 18.1.1, SVG Export Plug-In . SVG Version: 6.00 Build 0)  -->
<svg version="1.1" id="Layer_1" xmlns="http://www.w3.org/2000/svg" xmlns:xlink="http://www.w3.org/1999/xlink" x="0px" y="0px"
	 width="32px" height="32px" viewBox="0 0 32 32" style="enable-background:new 0 0 32 32;" xml:space="preserve">
<g>
	<circle style="fill:#FFAB00;" cx="16" cy="16" r="14"/>
</g>
<path style="fill:#FFFFFF;" d="M26,15.5h-1.5c-0.3-4.3-3.7-7.7-8-8V6c0-0.3-0.2-0.5-0.5-0.5S15.5,5.7,15.5,6v1.5
	c-4.3,0.3-7.7,3.7-8,8H6c-0.3,0-0.5,0.2-0.5,0.5s0.2,0.5,0.5,0.5h1.5c0.3,4.3,3.7,7.7,8,8V26c0,0.3,0.2,0.5,0.5,0.5s0.5-0.2,0.5-0.5
	v-1.5c4.3-0.3,7.7-3.7,8-8H26c0.3,0,0.5-0.2,0.5-0.5S26.3,15.5,26,15.5z M23.5,15.5h-7v-7C20.2,8.8,23.2,11.8,23.5,15.5z M15.5,8.5
	v7h-7C8.8,11.8,11.8,8.8,15.5,8.5z M8.5,16.5h7v7C11.8,23.2,8.8,20.2,8.5,16.5z M16.5,23.5v-7h7C23.2,20.2,20.2,23.2,16.5,23.5z"/>
</svg>
