<?xml version="1.0" encoding="utf-8"?>
<!-- Generator: Adobe Illustrator 22.1.0, SVG Export Plug-In . SVG Version: 6.00 Build 0)  -->
<svg version="1.1" id="Layer_1" xmlns="http://www.w3.org/2000/svg" xmlns:xlink="http://www.w3.org/1999/xlink" x="0px" y="0px"
	 viewBox="0 0 223 82" style="enable-background:new 0 0 223 82;" xml:space="preserve">
<style type="text/css">
	.st0{fill:none;}
</style>
<rect x="-45" y="-44" class="st0" width="316" height="168"/>
<path d="M158,58.8c0-0.5-0.3-0.7-1-0.7c-0.2,0-0.5,0-0.7,0v2.2h0.5v-0.7h0.2l0.4,0.7h0.6l-0.5-0.8C157.8,59.3,158,59.1,158,58.8
	 M157,59.1h-0.2v-0.7c0,0,0.1,0,0.2,0c0.4,0,0.5,0.1,0.5,0.3C157.5,59,157.4,59.1,157,59.1"/>
<path d="M157.1,57c-1.5,0-2.2,0.7-2.2,2.2c0,1.5,0.7,2.2,2.2,2.2c1.5,0,2.2-0.7,2.2-2.2C159.3,57.7,158.6,57,157.1,57 M157.1,61
	c-1.3,0-1.8-0.5-1.8-1.8c0-1.3,0.5-1.8,1.8-1.8c1.3,0,1.8,0.5,1.8,1.8C158.9,60.5,158.4,61,157.1,61"/>
<path d="M11.6,37.1c0-0.4,0.1-0.4,0.5-0.4h14.4c0.4,0,0.5,0.1,0.5,0.4v4.3c0,0.4-0.1,0.5-0.5,0.5h-8.9v5.3H25c0.4,0,0.5,0.1,0.5,0.5
	v4.3c0,0.4-0.1,0.5-0.5,0.5h-7.5v8.2c0,0.4-0.1,0.4-0.4,0.4h-5c-0.4,0-0.5-0.1-0.5-0.4V37.1z"/>
<path d="M29.6,52.3c-0.4,0-0.5-0.1-0.5-0.5v-4.3c0-0.4,0.1-0.5,0.5-0.5H37c0.4,0,0.5,0.1,0.5,0.5v4.3c0,0.4-0.1,0.5-0.5,0.5H29.6z"
	/>
<path d="M45.8,43.2c0,1.6,0.9,1.9,4.6,3c5.2,1.5,7.1,3.5,7.1,7.6c0,5.3-4.4,7.5-9.5,7.5c-2.9,0-5.6-0.8-7.2-1.7
	c-0.2-0.1-0.4-0.2-0.4-0.6v-3.2c0-0.3,0.1-0.4,0.3-0.4c0.5,0,3.7,0.9,6.8,0.9c2.7,0,4-0.7,4-2.3c0-1.6-1.2-2.1-4.4-3
	c-5.5-1.5-7.3-3.5-7.3-7.5c0-4.8,3.9-7.5,8.6-7.5c2.7,0,5,0.6,7.1,1.7c0.3,0.2,0.4,0.2,0.4,0.6v3.2c0,0.3-0.2,0.4-0.4,0.4
	c-0.7,0-3.6-0.9-6.8-0.9C46.6,41.1,45.8,42,45.8,43.2"/>
<path d="M65.7,53.3c0.2,2.6,1.6,3.4,4.8,3.4c3.2,0,5.5-0.8,6.1-0.8c0.2,0,0.4,0,0.4,0.4v3c0,0.4-0.2,0.5-0.5,0.6
	c-1.7,0.7-4.2,1.5-7.1,1.5c-6,0-9.5-2.7-9.5-9.5c0-6.4,3.4-9.8,9.3-9.8c6.6,0,8.6,3.9,8.6,9.3v1.5c0,0.4-0.1,0.4-0.5,0.4H65.7z
	 M65.6,50.1h6.6c0-2.7-0.9-3.7-3.1-3.7C67.1,46.3,65.8,47.4,65.6,50.1"/>
<path d="M89.4,42.1c2.3,0,4.7,0.7,6.2,1.4c0.4,0.2,0.4,0.2,0.4,0.6v2.9c0,0.2,0,0.4-0.3,0.4c-0.6,0-2.8-0.7-5.4-0.7
	c-3.2,0-4.4,1.7-4.4,5c0,3.2,1.2,5,4.4,5c2.6,0,5-0.8,5.5-0.8c0.2,0,0.3,0.2,0.3,0.4v3c0,0.4,0,0.5-0.4,0.6
	c-1.6,0.7-4.1,1.4-6.4,1.4c-6.4,0-9.3-3.9-9.3-9.6C80.1,46,83,42.1,89.4,42.1"/>
<path d="M107.9,61.4c-5,0-8.9-1.6-8.9-7.5v-11c0-0.4,0.1-0.5,0.5-0.5h4.9c0.4,0,0.5,0.1,0.5,0.5v10.2c0,2.5,0.8,3.6,3.3,3.6
	c1,0,2,0,2.8-0.1V42.9c0-0.4,0.1-0.5,0.4-0.5h4.9c0.4,0,0.4,0.1,0.4,0.5v17c0,0.4,0,0.4-0.3,0.5C114.1,61,110.9,61.4,107.9,61.4"/>
<path d="M129.5,46.9c-1.1,0-2.1,0.1-2.7,0.4v13.2c0,0.4-0.1,0.4-0.4,0.4h-4.9c-0.4,0-0.5-0.1-0.5-0.4V44.1c0-0.3,0.1-0.4,0.4-0.5
	c2.2-0.9,4.5-1.5,7.2-1.5c1.6,0,3.1,0.1,4.4,0.5c0.2,0.1,0.3,0.2,0.3,0.4v3.7c0,0.4-0.1,0.4-0.4,0.4
	C132.4,47.1,131.3,46.9,129.5,46.9"/>
<path d="M140.2,53.3c0.2,2.6,1.6,3.4,4.8,3.4c3.2,0,5.5-0.8,6.1-0.8c0.2,0,0.4,0,0.4,0.4v3c0,0.4-0.2,0.5-0.4,0.6
	c-1.7,0.7-4.2,1.5-7.1,1.5c-6,0-9.5-2.7-9.5-9.5c0-6.4,3.4-9.8,9.3-9.8c6.6,0,8.6,3.9,8.6,9.3v1.5c0,0.4-0.1,0.4-0.5,0.4H140.2z
	 M140.2,50.1h6.6c0-2.7-0.9-3.7-3.1-3.7C141.7,46.3,140.3,47.4,140.2,50.1"/>
<g>
	<path d="M215,17.5c-18.8-6.5-38.5-6.8-55.9-1.5c-3.7,1.1-4.7,4.3-4.1,6.9c1,4,2.4,8.6,4.2,12.9c0,0.1,0.1,0,0.1-0.1
		c-0.2-2,1.3-4.4,4.2-5.3c16.5-5,30.9-3.8,43.7,0.6c2.2,0.7,4.6-0.4,5.3-2.7c1.7-5.7,2.5-9.5,2.6-10.5
		C215.2,17.6,215.1,17.5,215,17.5"/>
	<path d="M171.6,29.9c-2.2,0.5-5.2,1.2-7.4,1.9c-4.5,1.5-4.3,7-1.9,8.7c0.2-1,1.2-2.4,2.4-2.9c4.5-1.7,9.3-2.8,14.1-3.2
		C176.5,33.5,174,32,171.6,29.9"/>
	<path d="M207.3,40.8c-12.9-6.2-28.5-6.6-41.4-1.7c-2.1,0.8-3.5,3.4-2.1,5.9c2.1,3.9,4.8,8.1,7.9,12.1c-0.4-1.5,0.3-4.2,3.2-5.1
		c7.9-2.4,16.2-1.4,21.8,0.8c1.6,0.6,3.7,0.3,5-1.6c2.7-4.1,5.2-9,5.7-10.1C207.5,41,207.4,40.9,207.3,40.8"/>
	<path d="M194.4,60.4c-1.4-0.4-4.9-3.2-6.3-4.5c-0.9-0.9-2.1-2.1-3.5-3.6c-3,0-6,0.3-9.1,1.3c-2.9,0.9-3.2,4.3-1.9,6
		c2.2,2.7,3.7,4.2,6.1,6.6c2.5,2.6,7,2.7,9.6,0.1c1.9-1.9,3-3.2,5.2-5.6C194.7,60.6,194.6,60.4,194.4,60.4"/>
</g>
</svg>
