<?xml version="1.0" encoding="utf-8"?>
<!-- Generator: Adobe Illustrator 22.1.0, SVG Export Plug-In . SVG Version: 6.00 Build 0)  -->
<svg version="1.1" id="Layer_1" xmlns="http://www.w3.org/2000/svg" xmlns:xlink="http://www.w3.org/1999/xlink" x="0px" y="0px"
	 viewBox="0 0 183 39" style="enable-background:new 0 0 183 39;" xml:space="preserve">
<g>
	<path d="M7.1,24.8c2.5,1.8,4.4,2.5,6.7,2.5c2.3,0,3.4-0.8,3.4-2.2c0-1.3-0.7-1.9-3.7-2.7c-5-1.3-6.9-3.5-6.9-7.7
		C6.6,10,9.9,7,15.2,7c2.5,0,4.4,0.5,6.6,1.8v6.1c-2.2-1.8-4.1-2.6-6.4-2.6c-1.8,0-2.8,0.7-2.8,2s0.7,1.8,4,2.7
		c4.7,1.3,6.7,3.5,6.7,7.6c0,5-3.4,7.9-9.3,7.9c-2.6,0-4.8-0.6-6.8-1.8V24.8z"/>
	<path d="M42.2,26.8v5.5H25.8V7.5h16.1v5.5H31.8v4.3H41v5.3h-9.2v4.3H42.2z"/>
	<path d="M61.4,22.6V7.5h5.9v24.8h-5.8L51.4,17.3v14.9h-5.9V7.5h6.1L61.4,22.6z"/>
	<path d="M70.3,24.8c2.5,1.8,4.4,2.5,6.7,2.5c2.3,0,3.4-0.8,3.4-2.2c0-1.3-0.7-1.9-3.7-2.7c-5-1.3-6.9-3.5-6.9-7.7
		c0-4.8,3.3-7.8,8.6-7.8c2.5,0,4.4,0.5,6.6,1.8v6.1c-2.2-1.8-4.1-2.6-6.4-2.6c-1.8,0-2.8,0.7-2.8,2s0.7,1.8,4,2.7
		c4.7,1.3,6.7,3.5,6.7,7.6c0,5-3.4,7.9-9.3,7.9c-2.6,0-4.8-0.6-6.8-1.8V24.8z"/>
	<path d="M105.4,26.8v5.5H89V7.5h16.1v5.5H95v4.3h9.2v5.3H95v4.3H105.4z"/>
	<path d="M114.5,24.8c2.5,1.8,4.4,2.5,6.7,2.5c2.3,0,3.4-0.8,3.4-2.2c0-1.3-0.7-1.9-3.7-2.7c-5-1.3-6.9-3.5-6.9-7.7
		c0-4.8,3.3-7.8,8.6-7.8c2.5,0,4.4,0.5,6.6,1.8v6.1c-2.2-1.8-4.1-2.6-6.4-2.6c-1.8,0-2.8,0.7-2.8,2s0.7,1.8,4,2.7
		c4.7,1.3,6.7,3.5,6.7,7.6c0,5-3.4,7.9-9.3,7.9c-2.6,0-4.8-0.6-6.8-1.8V24.8z"/>
	<path d="M133.2,7.7c2.5-0.4,5.6-0.6,8-0.6c8.7,0,13.8,4.6,13.8,12.6c0,8.3-5,12.9-14.2,12.9c-3,0-5.7-0.2-7.6-0.6V7.7z M139.3,27
		c0.8,0.1,1.6,0.1,2.5,0.1c4.4,0,6.9-2.7,6.9-7.5c0-4.4-2.5-6.9-7-6.9c-0.8,0-1.6,0-2.4,0.1V27z"/>
	<path d="M157.8,7.5h6.1v24.8h-6.1V7.5z M171.4,7.5h7l-7.8,12l8.4,12.8h-7.2L164,20L171.4,7.5z"/>
</g>
</svg>
