<?xml version="1.0" encoding="utf-8"?>
<!-- Generator: Adobe Illustrator 22.1.0, SVG Export Plug-In . SVG Version: 6.00 Build 0)  -->
<svg version="1.1" id="Layer_1" xmlns="http://www.w3.org/2000/svg" xmlns:xlink="http://www.w3.org/1999/xlink" x="0px" y="0px"
	 viewBox="0 0 48 30" style="enable-background:new 0 0 48 30;" xml:space="preserve">
<style type="text/css">
	.st0{fill:#CCCCCC;}
	.st1{fill:#FFFFFF;}
</style>
<path class="st0" d="M33.4,0H14.6C6.6,0,0,6.8,0,15s6.6,15,14.6,15h18.8C41.5,30,48,23.3,48,15C48,6.7,41.5,0,33.4,0z"/>
<g>
	<path class="st1" d="M15,3c6.6,0,12,5.4,12,12s-5.4,12-12,12S3,21.6,3,15S8.4,3,15,3 M15,2C7.8,2,2,7.8,2,15c0,7.2,5.8,13,13,13
		c7.2,0,13-5.8,13-13C28,7.8,22.2,2,15,2L15,2z"/>
</g>
</svg>
